ISO-10303-21;
HEADER;
FILE_DESCRIPTION(('FreeCAD Model'),'2;1');
FILE_NAME('Open CASCADE Shape Model','2026-06-06T18:34:06',(''),(''),
  'Open CASCADE STEP processor 7.8','FreeCAD','Unknown');
FILE_SCHEMA(('AUTOMOTIVE_DESIGN { 1 0 10303 214 1 1 1 1 }'));
ENDSEC;
DATA;
#1 = APPLICATION_PROTOCOL_DEFINITION('international standard',
  'automotive_design',2000,#2);
#2 = APPLICATION_CONTEXT(
  'core data for automotive mechanical design processes');
#3 = SHAPE_DEFINITION_REPRESENTATION(#4,#10);
#4 = PRODUCT_DEFINITION_SHAPE('','',#5);
#5 = PRODUCT_DEFINITION('design','',#6,#9);
#6 = PRODUCT_DEFINITION_FORMATION('','',#7);
#7 = PRODUCT('PiPico_Carrier001','PiPico_Carrier001','',(#8));
#8 = PRODUCT_CONTEXT('',#2,'mechanical');
#9 = PRODUCT_DEFINITION_CONTEXT('part definition',#2,'design');
#10 = ADVANCED_BREP_SHAPE_REPRESENTATION('',(#11,#15),#1193);
#11 = AXIS2_PLACEMENT_3D('',#12,#13,#14);
#12 = CARTESIAN_POINT('',(0.,0.,0.));
#13 = DIRECTION('',(0.,0.,1.));
#14 = DIRECTION('',(1.,0.,-0.));
#15 = MANIFOLD_SOLID_BREP('',#16);
#16 = CLOSED_SHELL('',(#17,#57,#308,#333,#358,#593,#610,#627,#644,#661,
    #673,#698,#723,#748,#773,#795,#812,#829,#846,#863,#880,#897,#909,
    #931,#948,#965,#982,#999,#1016,#1033,#1045,#1070,#1095,#1120,#1145,
    #1157,#1169,#1181));
#17 = ADVANCED_FACE('',(#18),#52,.F.);
#18 = FACE_BOUND('',#19,.F.);
#19 = EDGE_LOOP('',(#20,#30,#38,#46));
#20 = ORIENTED_EDGE('',*,*,#21,.F.);
#21 = EDGE_CURVE('',#22,#24,#26,.T.);
#22 = VERTEX_POINT('',#23);
#23 = CARTESIAN_POINT('',(-55.,8.,0.));
#24 = VERTEX_POINT('',#25);
#25 = CARTESIAN_POINT('',(-55.,-8.,0.));
#26 = LINE('',#27,#28);
#27 = CARTESIAN_POINT('',(-55.,11.5,0.));
#28 = VECTOR('',#29,1.);
#29 = DIRECTION('',(0.,-1.,0.));
#30 = ORIENTED_EDGE('',*,*,#31,.T.);
#31 = EDGE_CURVE('',#22,#32,#34,.T.);
#32 = VERTEX_POINT('',#33);
#33 = CARTESIAN_POINT('',(-55.,8.,2.5));
#34 = LINE('',#35,#36);
#35 = CARTESIAN_POINT('',(-55.,8.,0.));
#36 = VECTOR('',#37,1.);
#37 = DIRECTION('',(0.,0.,1.));
#38 = ORIENTED_EDGE('',*,*,#39,.T.);
#39 = EDGE_CURVE('',#32,#40,#42,.T.);
#40 = VERTEX_POINT('',#41);
#41 = CARTESIAN_POINT('',(-55.,-8.,2.5));
#42 = LINE('',#43,#44);
#43 = CARTESIAN_POINT('',(-55.,11.5,2.5));
#44 = VECTOR('',#45,1.);
#45 = DIRECTION('',(0.,-1.,0.));
#46 = ORIENTED_EDGE('',*,*,#47,.F.);
#47 = EDGE_CURVE('',#24,#40,#48,.T.);
#48 = LINE('',#49,#50);
#49 = CARTESIAN_POINT('',(-55.,-8.,0.));
#50 = VECTOR('',#51,1.);
#51 = DIRECTION('',(0.,0.,1.));
#52 = PLANE('',#53);
#53 = AXIS2_PLACEMENT_3D('',#54,#55,#56);
#54 = CARTESIAN_POINT('',(-55.,11.5,0.));
#55 = DIRECTION('',(1.,0.,0.));
#56 = DIRECTION('',(0.,-1.,0.));
#57 = ADVANCED_FACE('',(#58,#119,#130,#141,#152,#163,#233),#303,.F.);
#58 = FACE_BOUND('',#59,.F.);
#59 = EDGE_LOOP('',(#60,#61,#70,#78,#87,#95,#104,#112));
#60 = ORIENTED_EDGE('',*,*,#21,.T.);
#61 = ORIENTED_EDGE('',*,*,#62,.T.);
#62 = EDGE_CURVE('',#24,#63,#65,.T.);
#63 = VERTEX_POINT('',#64);
#64 = CARTESIAN_POINT('',(-51.5,-11.5,0.));
#65 = CIRCLE('',#66,3.5);
#66 = AXIS2_PLACEMENT_3D('',#67,#68,#69);
#67 = CARTESIAN_POINT('',(-51.5,-8.,0.));
#68 = DIRECTION('',(-0.,0.,1.));
#69 = DIRECTION('',(0.,-1.,0.));
#70 = ORIENTED_EDGE('',*,*,#71,.T.);
#71 = EDGE_CURVE('',#63,#72,#74,.T.);
#72 = VERTEX_POINT('',#73);
#73 = CARTESIAN_POINT('',(51.5,-11.5,0.));
#74 = LINE('',#75,#76);
#75 = CARTESIAN_POINT('',(-55.,-11.5,0.));
#76 = VECTOR('',#77,1.);
#77 = DIRECTION('',(1.,0.,0.));
#78 = ORIENTED_EDGE('',*,*,#79,.T.);
#79 = EDGE_CURVE('',#72,#80,#82,.T.);
#80 = VERTEX_POINT('',#81);
#81 = CARTESIAN_POINT('',(55.,-8.,0.));
#82 = CIRCLE('',#83,3.5);
#83 = AXIS2_PLACEMENT_3D('',#84,#85,#86);
#84 = CARTESIAN_POINT('',(51.5,-8.,0.));
#85 = DIRECTION('',(-0.,0.,1.));
#86 = DIRECTION('',(0.,-1.,0.));
#87 = ORIENTED_EDGE('',*,*,#88,.T.);
#88 = EDGE_CURVE('',#80,#89,#91,.T.);
#89 = VERTEX_POINT('',#90);
#90 = CARTESIAN_POINT('',(55.,8.,0.));
#91 = LINE('',#92,#93);
#92 = CARTESIAN_POINT('',(55.,-11.5,0.));
#93 = VECTOR('',#94,1.);
#94 = DIRECTION('',(0.,1.,0.));
#95 = ORIENTED_EDGE('',*,*,#96,.F.);
#96 = EDGE_CURVE('',#97,#89,#99,.T.);
#97 = VERTEX_POINT('',#98);
#98 = CARTESIAN_POINT('',(51.5,11.5,0.));
#99 = CIRCLE('',#100,3.5);
#100 = AXIS2_PLACEMENT_3D('',#101,#102,#103);
#101 = CARTESIAN_POINT('',(51.5,8.,0.));
#102 = DIRECTION('',(-0.,-0.,-1.));
#103 = DIRECTION('',(0.,-1.,0.));
#104 = ORIENTED_EDGE('',*,*,#105,.T.);
#105 = EDGE_CURVE('',#97,#106,#108,.T.);
#106 = VERTEX_POINT('',#107);
#107 = CARTESIAN_POINT('',(-51.5,11.5,0.));
#108 = LINE('',#109,#110);
#109 = CARTESIAN_POINT('',(55.,11.5,0.));
#110 = VECTOR('',#111,1.);
#111 = DIRECTION('',(-1.,0.,0.));
#112 = ORIENTED_EDGE('',*,*,#113,.F.);
#113 = EDGE_CURVE('',#22,#106,#114,.T.);
#114 = CIRCLE('',#115,3.5);
#115 = AXIS2_PLACEMENT_3D('',#116,#117,#118);
#116 = CARTESIAN_POINT('',(-51.5,8.,0.));
#117 = DIRECTION('',(-0.,-0.,-1.));
#118 = DIRECTION('',(0.,-1.,0.));
#119 = FACE_BOUND('',#120,.F.);
#120 = EDGE_LOOP('',(#121));
#121 = ORIENTED_EDGE('',*,*,#122,.F.);
#122 = EDGE_CURVE('',#123,#123,#125,.T.);
#123 = VERTEX_POINT('',#124);
#124 = CARTESIAN_POINT('',(-2.41,-5.7,0.));
#125 = CIRCLE('',#126,0.85);
#126 = AXIS2_PLACEMENT_3D('',#127,#128,#129);
#127 = CARTESIAN_POINT('',(-3.26,-5.7,0.));
#128 = DIRECTION('',(0.,0.,1.));
#129 = DIRECTION('',(1.,0.,0.));
#130 = FACE_BOUND('',#131,.F.);
#131 = EDGE_LOOP('',(#132));
#132 = ORIENTED_EDGE('',*,*,#133,.F.);
#133 = EDGE_CURVE('',#134,#134,#136,.T.);
#134 = VERTEX_POINT('',#135);
#135 = CARTESIAN_POINT('',(45.85,-5.7,0.));
#136 = CIRCLE('',#137,0.85);
#137 = AXIS2_PLACEMENT_3D('',#138,#139,#140);
#138 = CARTESIAN_POINT('',(45.,-5.7,0.));
#139 = DIRECTION('',(0.,0.,1.));
#140 = DIRECTION('',(1.,0.,0.));
#141 = FACE_BOUND('',#142,.F.);
#142 = EDGE_LOOP('',(#143));
#143 = ORIENTED_EDGE('',*,*,#144,.F.);
#144 = EDGE_CURVE('',#145,#145,#147,.T.);
#145 = VERTEX_POINT('',#146);
#146 = CARTESIAN_POINT('',(-2.41,5.7,0.));
#147 = CIRCLE('',#148,0.85);
#148 = AXIS2_PLACEMENT_3D('',#149,#150,#151);
#149 = CARTESIAN_POINT('',(-3.26,5.7,0.));
#150 = DIRECTION('',(0.,0.,1.));
#151 = DIRECTION('',(1.,0.,0.));
#152 = FACE_BOUND('',#153,.F.);
#153 = EDGE_LOOP('',(#154));
#154 = ORIENTED_EDGE('',*,*,#155,.F.);
#155 = EDGE_CURVE('',#156,#156,#158,.T.);
#156 = VERTEX_POINT('',#157);
#157 = CARTESIAN_POINT('',(45.85,5.7,0.));
#158 = CIRCLE('',#159,0.85);
#159 = AXIS2_PLACEMENT_3D('',#160,#161,#162);
#160 = CARTESIAN_POINT('',(45.,5.7,0.));
#161 = DIRECTION('',(0.,0.,1.));
#162 = DIRECTION('',(1.,0.,0.));
#163 = FACE_BOUND('',#164,.F.);
#164 = EDGE_LOOP('',(#165,#175,#184,#192,#201,#209,#218,#226));
#165 = ORIENTED_EDGE('',*,*,#166,.F.);
#166 = EDGE_CURVE('',#167,#169,#171,.T.);
#167 = VERTEX_POINT('',#168);
#168 = CARTESIAN_POINT('',(-45.,3.,0.));
#169 = VERTEX_POINT('',#170);
#170 = CARTESIAN_POINT('',(-45.,-3.,0.));
#171 = LINE('',#172,#173);
#172 = CARTESIAN_POINT('',(-45.,3.25,0.));
#173 = VECTOR('',#174,1.);
#174 = DIRECTION('',(0.,-1.,0.));
#175 = ORIENTED_EDGE('',*,*,#176,.T.);
#176 = EDGE_CURVE('',#167,#177,#179,.T.);
#177 = VERTEX_POINT('',#178);
#178 = CARTESIAN_POINT('',(-41.5,6.5,0.));
#179 = CIRCLE('',#180,3.5);
#180 = AXIS2_PLACEMENT_3D('',#181,#182,#183);
#181 = CARTESIAN_POINT('',(-41.5,3.,0.));
#182 = DIRECTION('',(0.,0.,-1.));
#183 = DIRECTION('',(0.,1.,0.));
#184 = ORIENTED_EDGE('',*,*,#185,.F.);
#185 = EDGE_CURVE('',#186,#177,#188,.T.);
#186 = VERTEX_POINT('',#187);
#187 = CARTESIAN_POINT('',(-16.76,6.5,0.));
#188 = LINE('',#189,#190);
#189 = CARTESIAN_POINT('',(-6.63,6.5,0.));
#190 = VECTOR('',#191,1.);
#191 = DIRECTION('',(-1.,0.,0.));
#192 = ORIENTED_EDGE('',*,*,#193,.F.);
#193 = EDGE_CURVE('',#194,#186,#196,.T.);
#194 = VERTEX_POINT('',#195);
#195 = CARTESIAN_POINT('',(-13.26,3.,0.));
#196 = CIRCLE('',#197,3.5);
#197 = AXIS2_PLACEMENT_3D('',#198,#199,#200);
#198 = CARTESIAN_POINT('',(-16.76,3.,0.));
#199 = DIRECTION('',(0.,-0.,1.));
#200 = DIRECTION('',(0.,1.,0.));
#201 = ORIENTED_EDGE('',*,*,#202,.F.);
#202 = EDGE_CURVE('',#203,#194,#205,.T.);
#203 = VERTEX_POINT('',#204);
#204 = CARTESIAN_POINT('',(-13.26,-3.,0.));
#205 = LINE('',#206,#207);
#206 = CARTESIAN_POINT('',(-13.26,-3.25,0.));
#207 = VECTOR('',#208,1.);
#208 = DIRECTION('',(0.,1.,0.));
#209 = ORIENTED_EDGE('',*,*,#210,.F.);
#210 = EDGE_CURVE('',#211,#203,#213,.T.);
#211 = VERTEX_POINT('',#212);
#212 = CARTESIAN_POINT('',(-16.76,-6.5,0.));
#213 = CIRCLE('',#214,3.5);
#214 = AXIS2_PLACEMENT_3D('',#215,#216,#217);
#215 = CARTESIAN_POINT('',(-16.76,-3.,0.));
#216 = DIRECTION('',(0.,-0.,1.));
#217 = DIRECTION('',(0.,1.,0.));
#218 = ORIENTED_EDGE('',*,*,#219,.F.);
#219 = EDGE_CURVE('',#220,#211,#222,.T.);
#220 = VERTEX_POINT('',#221);
#221 = CARTESIAN_POINT('',(-41.5,-6.5,0.));
#222 = LINE('',#223,#224);
#223 = CARTESIAN_POINT('',(-22.5,-6.5,0.));
#224 = VECTOR('',#225,1.);
#225 = DIRECTION('',(1.,0.,0.));
#226 = ORIENTED_EDGE('',*,*,#227,.F.);
#227 = EDGE_CURVE('',#169,#220,#228,.T.);
#228 = CIRCLE('',#229,3.5);
#229 = AXIS2_PLACEMENT_3D('',#230,#231,#232);
#230 = CARTESIAN_POINT('',(-41.5,-3.,0.));
#231 = DIRECTION('',(0.,-0.,1.));
#232 = DIRECTION('',(0.,1.,0.));
#233 = FACE_BOUND('',#234,.F.);
#234 = EDGE_LOOP('',(#235,#245,#254,#262,#271,#279,#288,#296));
#235 = ORIENTED_EDGE('',*,*,#236,.F.);
#236 = EDGE_CURVE('',#237,#239,#241,.T.);
#237 = VERTEX_POINT('',#238);
#238 = CARTESIAN_POINT('',(6.74,3.,0.));
#239 = VERTEX_POINT('',#240);
#240 = CARTESIAN_POINT('',(6.74,-3.,0.));
#241 = LINE('',#242,#243);
#242 = CARTESIAN_POINT('',(6.74,3.25,0.));
#243 = VECTOR('',#244,1.);
#244 = DIRECTION('',(0.,-1.,0.));
#245 = ORIENTED_EDGE('',*,*,#246,.T.);
#246 = EDGE_CURVE('',#237,#247,#249,.T.);
#247 = VERTEX_POINT('',#248);
#248 = CARTESIAN_POINT('',(10.24,6.5,0.));
#249 = CIRCLE('',#250,3.5);
#250 = AXIS2_PLACEMENT_3D('',#251,#252,#253);
#251 = CARTESIAN_POINT('',(10.24,3.,0.));
#252 = DIRECTION('',(0.,0.,-1.));
#253 = DIRECTION('',(0.,1.,0.));
#254 = ORIENTED_EDGE('',*,*,#255,.F.);
#255 = EDGE_CURVE('',#256,#247,#258,.T.);
#256 = VERTEX_POINT('',#257);
#257 = CARTESIAN_POINT('',(31.5,6.5,0.));
#258 = LINE('',#259,#260);
#259 = CARTESIAN_POINT('',(17.5,6.5,0.));
#260 = VECTOR('',#261,1.);
#261 = DIRECTION('',(-1.,0.,0.));
#262 = ORIENTED_EDGE('',*,*,#263,.F.);
#263 = EDGE_CURVE('',#264,#256,#266,.T.);
#264 = VERTEX_POINT('',#265);
#265 = CARTESIAN_POINT('',(35.,3.,0.));
#266 = CIRCLE('',#267,3.5);
#267 = AXIS2_PLACEMENT_3D('',#268,#269,#270);
#268 = CARTESIAN_POINT('',(31.5,3.,0.));
#269 = DIRECTION('',(0.,-0.,1.));
#270 = DIRECTION('',(0.,1.,0.));
#271 = ORIENTED_EDGE('',*,*,#272,.F.);
#272 = EDGE_CURVE('',#273,#264,#275,.T.);
#273 = VERTEX_POINT('',#274);
#274 = CARTESIAN_POINT('',(35.,-3.,0.));
#275 = LINE('',#276,#277);
#276 = CARTESIAN_POINT('',(35.,-3.25,0.));
#277 = VECTOR('',#278,1.);
#278 = DIRECTION('',(0.,1.,0.));
#279 = ORIENTED_EDGE('',*,*,#280,.F.);
#280 = EDGE_CURVE('',#281,#273,#283,.T.);
#281 = VERTEX_POINT('',#282);
#282 = CARTESIAN_POINT('',(31.5,-6.5,0.));
#283 = CIRCLE('',#284,3.5);
#284 = AXIS2_PLACEMENT_3D('',#285,#286,#287);
#285 = CARTESIAN_POINT('',(31.5,-3.,0.));
#286 = DIRECTION('',(0.,-0.,1.));
#287 = DIRECTION('',(0.,1.,0.));
#288 = ORIENTED_EDGE('',*,*,#289,.F.);
#289 = EDGE_CURVE('',#290,#281,#292,.T.);
#290 = VERTEX_POINT('',#291);
#291 = CARTESIAN_POINT('',(10.24,-6.5,0.));
#292 = LINE('',#293,#294);
#293 = CARTESIAN_POINT('',(3.37,-6.5,0.));
#294 = VECTOR('',#295,1.);
#295 = DIRECTION('',(1.,0.,0.));
#296 = ORIENTED_EDGE('',*,*,#297,.F.);
#297 = EDGE_CURVE('',#239,#290,#298,.T.);
#298 = CIRCLE('',#299,3.5);
#299 = AXIS2_PLACEMENT_3D('',#300,#301,#302);
#300 = CARTESIAN_POINT('',(10.24,-3.,0.));
#301 = DIRECTION('',(0.,-0.,1.));
#302 = DIRECTION('',(0.,1.,0.));
#303 = PLANE('',#304);
#304 = AXIS2_PLACEMENT_3D('',#305,#306,#307);
#305 = CARTESIAN_POINT('',(0.,0.,0.));
#306 = DIRECTION('',(0.,0.,1.));
#307 = DIRECTION('',(1.,0.,0.));
#308 = ADVANCED_FACE('',(#309),#328,.T.);
#309 = FACE_BOUND('',#310,.F.);
#310 = EDGE_LOOP('',(#311,#312,#320,#327));
#311 = ORIENTED_EDGE('',*,*,#113,.T.);
#312 = ORIENTED_EDGE('',*,*,#313,.T.);
#313 = EDGE_CURVE('',#106,#314,#316,.T.);
#314 = VERTEX_POINT('',#315);
#315 = CARTESIAN_POINT('',(-51.5,11.5,2.5));
#316 = LINE('',#317,#318);
#317 = CARTESIAN_POINT('',(-51.5,11.5,0.));
#318 = VECTOR('',#319,1.);
#319 = DIRECTION('',(0.,0.,1.));
#320 = ORIENTED_EDGE('',*,*,#321,.F.);
#321 = EDGE_CURVE('',#32,#314,#322,.T.);
#322 = CIRCLE('',#323,3.5);
#323 = AXIS2_PLACEMENT_3D('',#324,#325,#326);
#324 = CARTESIAN_POINT('',(-51.5,8.,2.5));
#325 = DIRECTION('',(-0.,-0.,-1.));
#326 = DIRECTION('',(0.,-1.,0.));
#327 = ORIENTED_EDGE('',*,*,#31,.F.);
#328 = CYLINDRICAL_SURFACE('',#329,3.5);
#329 = AXIS2_PLACEMENT_3D('',#330,#331,#332);
#330 = CARTESIAN_POINT('',(-51.5,8.,0.));
#331 = DIRECTION('',(0.,0.,1.));
#332 = DIRECTION('',(-1.,0.,0.));
#333 = ADVANCED_FACE('',(#334),#353,.T.);
#334 = FACE_BOUND('',#335,.T.);
#335 = EDGE_LOOP('',(#336,#337,#345,#352));
#336 = ORIENTED_EDGE('',*,*,#62,.T.);
#337 = ORIENTED_EDGE('',*,*,#338,.T.);
#338 = EDGE_CURVE('',#63,#339,#341,.T.);
#339 = VERTEX_POINT('',#340);
#340 = CARTESIAN_POINT('',(-51.5,-11.5,2.5));
#341 = LINE('',#342,#343);
#342 = CARTESIAN_POINT('',(-51.5,-11.5,0.));
#343 = VECTOR('',#344,1.);
#344 = DIRECTION('',(0.,0.,1.));
#345 = ORIENTED_EDGE('',*,*,#346,.F.);
#346 = EDGE_CURVE('',#40,#339,#347,.T.);
#347 = CIRCLE('',#348,3.5);
#348 = AXIS2_PLACEMENT_3D('',#349,#350,#351);
#349 = CARTESIAN_POINT('',(-51.5,-8.,2.5));
#350 = DIRECTION('',(-0.,0.,1.));
#351 = DIRECTION('',(0.,-1.,0.));
#352 = ORIENTED_EDGE('',*,*,#47,.F.);
#353 = CYLINDRICAL_SURFACE('',#354,3.5);
#354 = AXIS2_PLACEMENT_3D('',#355,#356,#357);
#355 = CARTESIAN_POINT('',(-51.5,-8.,0.));
#356 = DIRECTION('',(0.,0.,1.));
#357 = DIRECTION('',(-1.,0.,0.));
#358 = ADVANCED_FACE('',(#359,#404,#415,#426,#437,#448,#518),#588,.T.);
#359 = FACE_BOUND('',#360,.T.);
#360 = EDGE_LOOP('',(#361,#362,#363,#371,#380,#388,#397,#403));
#361 = ORIENTED_EDGE('',*,*,#39,.T.);
#362 = ORIENTED_EDGE('',*,*,#346,.T.);
#363 = ORIENTED_EDGE('',*,*,#364,.T.);
#364 = EDGE_CURVE('',#339,#365,#367,.T.);
#365 = VERTEX_POINT('',#366);
#366 = CARTESIAN_POINT('',(51.5,-11.5,2.5));
#367 = LINE('',#368,#369);
#368 = CARTESIAN_POINT('',(-55.,-11.5,2.5));
#369 = VECTOR('',#370,1.);
#370 = DIRECTION('',(1.,0.,0.));
#371 = ORIENTED_EDGE('',*,*,#372,.T.);
#372 = EDGE_CURVE('',#365,#373,#375,.T.);
#373 = VERTEX_POINT('',#374);
#374 = CARTESIAN_POINT('',(55.,-8.,2.5));
#375 = CIRCLE('',#376,3.5);
#376 = AXIS2_PLACEMENT_3D('',#377,#378,#379);
#377 = CARTESIAN_POINT('',(51.5,-8.,2.5));
#378 = DIRECTION('',(-0.,0.,1.));
#379 = DIRECTION('',(0.,-1.,0.));
#380 = ORIENTED_EDGE('',*,*,#381,.T.);
#381 = EDGE_CURVE('',#373,#382,#384,.T.);
#382 = VERTEX_POINT('',#383);
#383 = CARTESIAN_POINT('',(55.,8.,2.5));
#384 = LINE('',#385,#386);
#385 = CARTESIAN_POINT('',(55.,-11.5,2.5));
#386 = VECTOR('',#387,1.);
#387 = DIRECTION('',(0.,1.,0.));
#388 = ORIENTED_EDGE('',*,*,#389,.F.);
#389 = EDGE_CURVE('',#390,#382,#392,.T.);
#390 = VERTEX_POINT('',#391);
#391 = CARTESIAN_POINT('',(51.5,11.5,2.5));
#392 = CIRCLE('',#393,3.5);
#393 = AXIS2_PLACEMENT_3D('',#394,#395,#396);
#394 = CARTESIAN_POINT('',(51.5,8.,2.5));
#395 = DIRECTION('',(-0.,-0.,-1.));
#396 = DIRECTION('',(0.,-1.,0.));
#397 = ORIENTED_EDGE('',*,*,#398,.T.);
#398 = EDGE_CURVE('',#390,#314,#399,.T.);
#399 = LINE('',#400,#401);
#400 = CARTESIAN_POINT('',(55.,11.5,2.5));
#401 = VECTOR('',#402,1.);
#402 = DIRECTION('',(-1.,0.,0.));
#403 = ORIENTED_EDGE('',*,*,#321,.F.);
#404 = FACE_BOUND('',#405,.T.);
#405 = EDGE_LOOP('',(#406));
#406 = ORIENTED_EDGE('',*,*,#407,.F.);
#407 = EDGE_CURVE('',#408,#408,#410,.T.);
#408 = VERTEX_POINT('',#409);
#409 = CARTESIAN_POINT('',(-1.26,-5.7,2.5));
#410 = CIRCLE('',#411,2.);
#411 = AXIS2_PLACEMENT_3D('',#412,#413,#414);
#412 = CARTESIAN_POINT('',(-3.26,-5.7,2.5));
#413 = DIRECTION('',(0.,0.,1.));
#414 = DIRECTION('',(1.,0.,0.));
#415 = FACE_BOUND('',#416,.T.);
#416 = EDGE_LOOP('',(#417));
#417 = ORIENTED_EDGE('',*,*,#418,.F.);
#418 = EDGE_CURVE('',#419,#419,#421,.T.);
#419 = VERTEX_POINT('',#420);
#420 = CARTESIAN_POINT('',(47.,-5.7,2.5));
#421 = CIRCLE('',#422,2.);
#422 = AXIS2_PLACEMENT_3D('',#423,#424,#425);
#423 = CARTESIAN_POINT('',(45.,-5.7,2.5));
#424 = DIRECTION('',(0.,0.,1.));
#425 = DIRECTION('',(1.,0.,0.));
#426 = FACE_BOUND('',#427,.T.);
#427 = EDGE_LOOP('',(#428));
#428 = ORIENTED_EDGE('',*,*,#429,.F.);
#429 = EDGE_CURVE('',#430,#430,#432,.T.);
#430 = VERTEX_POINT('',#431);
#431 = CARTESIAN_POINT('',(-1.26,5.7,2.5));
#432 = CIRCLE('',#433,2.);
#433 = AXIS2_PLACEMENT_3D('',#434,#435,#436);
#434 = CARTESIAN_POINT('',(-3.26,5.7,2.5));
#435 = DIRECTION('',(0.,0.,1.));
#436 = DIRECTION('',(1.,0.,0.));
#437 = FACE_BOUND('',#438,.T.);
#438 = EDGE_LOOP('',(#439));
#439 = ORIENTED_EDGE('',*,*,#440,.F.);
#440 = EDGE_CURVE('',#441,#441,#443,.T.);
#441 = VERTEX_POINT('',#442);
#442 = CARTESIAN_POINT('',(47.,5.7,2.5));
#443 = CIRCLE('',#444,2.);
#444 = AXIS2_PLACEMENT_3D('',#445,#446,#447);
#445 = CARTESIAN_POINT('',(45.,5.7,2.5));
#446 = DIRECTION('',(0.,0.,1.));
#447 = DIRECTION('',(1.,0.,0.));
#448 = FACE_BOUND('',#449,.T.);
#449 = EDGE_LOOP('',(#450,#460,#469,#477,#486,#494,#503,#511));
#450 = ORIENTED_EDGE('',*,*,#451,.F.);
#451 = EDGE_CURVE('',#452,#454,#456,.T.);
#452 = VERTEX_POINT('',#453);
#453 = CARTESIAN_POINT('',(-45.,3.,2.5));
#454 = VERTEX_POINT('',#455);
#455 = CARTESIAN_POINT('',(-45.,-3.,2.5));
#456 = LINE('',#457,#458);
#457 = CARTESIAN_POINT('',(-45.,6.5,2.5));
#458 = VECTOR('',#459,1.);
#459 = DIRECTION('',(0.,-1.,0.));
#460 = ORIENTED_EDGE('',*,*,#461,.T.);
#461 = EDGE_CURVE('',#452,#462,#464,.T.);
#462 = VERTEX_POINT('',#463);
#463 = CARTESIAN_POINT('',(-41.5,6.5,2.5));
#464 = CIRCLE('',#465,3.5);
#465 = AXIS2_PLACEMENT_3D('',#466,#467,#468);
#466 = CARTESIAN_POINT('',(-41.5,3.,2.5));
#467 = DIRECTION('',(0.,0.,-1.));
#468 = DIRECTION('',(0.,1.,0.));
#469 = ORIENTED_EDGE('',*,*,#470,.F.);
#470 = EDGE_CURVE('',#471,#462,#473,.T.);
#471 = VERTEX_POINT('',#472);
#472 = CARTESIAN_POINT('',(-16.76,6.5,2.5));
#473 = LINE('',#474,#475);
#474 = CARTESIAN_POINT('',(-13.26,6.5,2.5));
#475 = VECTOR('',#476,1.);
#476 = DIRECTION('',(-1.,0.,0.));
#477 = ORIENTED_EDGE('',*,*,#478,.F.);
#478 = EDGE_CURVE('',#479,#471,#481,.T.);
#479 = VERTEX_POINT('',#480);
#480 = CARTESIAN_POINT('',(-13.26,3.,2.5));
#481 = CIRCLE('',#482,3.5);
#482 = AXIS2_PLACEMENT_3D('',#483,#484,#485);
#483 = CARTESIAN_POINT('',(-16.76,3.,2.5));
#484 = DIRECTION('',(0.,-0.,1.));
#485 = DIRECTION('',(0.,1.,0.));
#486 = ORIENTED_EDGE('',*,*,#487,.F.);
#487 = EDGE_CURVE('',#488,#479,#490,.T.);
#488 = VERTEX_POINT('',#489);
#489 = CARTESIAN_POINT('',(-13.26,-3.,2.5));
#490 = LINE('',#491,#492);
#491 = CARTESIAN_POINT('',(-13.26,-6.5,2.5));
#492 = VECTOR('',#493,1.);
#493 = DIRECTION('',(0.,1.,0.));
#494 = ORIENTED_EDGE('',*,*,#495,.F.);
#495 = EDGE_CURVE('',#496,#488,#498,.T.);
#496 = VERTEX_POINT('',#497);
#497 = CARTESIAN_POINT('',(-16.76,-6.5,2.5));
#498 = CIRCLE('',#499,3.5);
#499 = AXIS2_PLACEMENT_3D('',#500,#501,#502);
#500 = CARTESIAN_POINT('',(-16.76,-3.,2.5));
#501 = DIRECTION('',(0.,-0.,1.));
#502 = DIRECTION('',(0.,1.,0.));
#503 = ORIENTED_EDGE('',*,*,#504,.F.);
#504 = EDGE_CURVE('',#505,#496,#507,.T.);
#505 = VERTEX_POINT('',#506);
#506 = CARTESIAN_POINT('',(-41.5,-6.5,2.5));
#507 = LINE('',#508,#509);
#508 = CARTESIAN_POINT('',(-45.,-6.5,2.5));
#509 = VECTOR('',#510,1.);
#510 = DIRECTION('',(1.,0.,0.));
#511 = ORIENTED_EDGE('',*,*,#512,.F.);
#512 = EDGE_CURVE('',#454,#505,#513,.T.);
#513 = CIRCLE('',#514,3.5);
#514 = AXIS2_PLACEMENT_3D('',#515,#516,#517);
#515 = CARTESIAN_POINT('',(-41.5,-3.,2.5));
#516 = DIRECTION('',(0.,-0.,1.));
#517 = DIRECTION('',(0.,1.,0.));
#518 = FACE_BOUND('',#519,.T.);
#519 = EDGE_LOOP('',(#520,#530,#539,#547,#556,#564,#573,#581));
#520 = ORIENTED_EDGE('',*,*,#521,.F.);
#521 = EDGE_CURVE('',#522,#524,#526,.T.);
#522 = VERTEX_POINT('',#523);
#523 = CARTESIAN_POINT('',(6.74,3.,2.5));
#524 = VERTEX_POINT('',#525);
#525 = CARTESIAN_POINT('',(6.74,-3.,2.5));
#526 = LINE('',#527,#528);
#527 = CARTESIAN_POINT('',(6.74,6.5,2.5));
#528 = VECTOR('',#529,1.);
#529 = DIRECTION('',(0.,-1.,0.));
#530 = ORIENTED_EDGE('',*,*,#531,.T.);
#531 = EDGE_CURVE('',#522,#532,#534,.T.);
#532 = VERTEX_POINT('',#533);
#533 = CARTESIAN_POINT('',(10.24,6.5,2.5));
#534 = CIRCLE('',#535,3.5);
#535 = AXIS2_PLACEMENT_3D('',#536,#537,#538);
#536 = CARTESIAN_POINT('',(10.24,3.,2.5));
#537 = DIRECTION('',(0.,0.,-1.));
#538 = DIRECTION('',(0.,1.,0.));
#539 = ORIENTED_EDGE('',*,*,#540,.F.);
#540 = EDGE_CURVE('',#541,#532,#543,.T.);
#541 = VERTEX_POINT('',#542);
#542 = CARTESIAN_POINT('',(31.5,6.5,2.5));
#543 = LINE('',#544,#545);
#544 = CARTESIAN_POINT('',(35.,6.5,2.5));
#545 = VECTOR('',#546,1.);
#546 = DIRECTION('',(-1.,0.,0.));
#547 = ORIENTED_EDGE('',*,*,#548,.F.);
#548 = EDGE_CURVE('',#549,#541,#551,.T.);
#549 = VERTEX_POINT('',#550);
#550 = CARTESIAN_POINT('',(35.,3.,2.5));
#551 = CIRCLE('',#552,3.5);
#552 = AXIS2_PLACEMENT_3D('',#553,#554,#555);
#553 = CARTESIAN_POINT('',(31.5,3.,2.5));
#554 = DIRECTION('',(0.,-0.,1.));
#555 = DIRECTION('',(0.,1.,0.));
#556 = ORIENTED_EDGE('',*,*,#557,.F.);
#557 = EDGE_CURVE('',#558,#549,#560,.T.);
#558 = VERTEX_POINT('',#559);
#559 = CARTESIAN_POINT('',(35.,-3.,2.5));
#560 = LINE('',#561,#562);
#561 = CARTESIAN_POINT('',(35.,-6.5,2.5));
#562 = VECTOR('',#563,1.);
#563 = DIRECTION('',(0.,1.,0.));
#564 = ORIENTED_EDGE('',*,*,#565,.F.);
#565 = EDGE_CURVE('',#566,#558,#568,.T.);
#566 = VERTEX_POINT('',#567);
#567 = CARTESIAN_POINT('',(31.5,-6.5,2.5));
#568 = CIRCLE('',#569,3.5);
#569 = AXIS2_PLACEMENT_3D('',#570,#571,#572);
#570 = CARTESIAN_POINT('',(31.5,-3.,2.5));
#571 = DIRECTION('',(0.,-0.,1.));
#572 = DIRECTION('',(0.,1.,0.));
#573 = ORIENTED_EDGE('',*,*,#574,.F.);
#574 = EDGE_CURVE('',#575,#566,#577,.T.);
#575 = VERTEX_POINT('',#576);
#576 = CARTESIAN_POINT('',(10.24,-6.5,2.5));
#577 = LINE('',#578,#579);
#578 = CARTESIAN_POINT('',(6.74,-6.5,2.5));
#579 = VECTOR('',#580,1.);
#580 = DIRECTION('',(1.,0.,0.));
#581 = ORIENTED_EDGE('',*,*,#582,.F.);
#582 = EDGE_CURVE('',#524,#575,#583,.T.);
#583 = CIRCLE('',#584,3.5);
#584 = AXIS2_PLACEMENT_3D('',#585,#586,#587);
#585 = CARTESIAN_POINT('',(10.24,-3.,2.5));
#586 = DIRECTION('',(0.,-0.,1.));
#587 = DIRECTION('',(0.,1.,0.));
#588 = PLANE('',#589);
#589 = AXIS2_PLACEMENT_3D('',#590,#591,#592);
#590 = CARTESIAN_POINT('',(0.,0.,2.5));
#591 = DIRECTION('',(0.,0.,1.));
#592 = DIRECTION('',(1.,0.,0.));
#593 = ADVANCED_FACE('',(#594),#605,.F.);
#594 = FACE_BOUND('',#595,.F.);
#595 = EDGE_LOOP('',(#596,#597,#603,#604));
#596 = ORIENTED_EDGE('',*,*,#105,.F.);
#597 = ORIENTED_EDGE('',*,*,#598,.T.);
#598 = EDGE_CURVE('',#97,#390,#599,.T.);
#599 = LINE('',#600,#601);
#600 = CARTESIAN_POINT('',(51.5,11.5,0.));
#601 = VECTOR('',#602,1.);
#602 = DIRECTION('',(0.,0.,1.));
#603 = ORIENTED_EDGE('',*,*,#398,.T.);
#604 = ORIENTED_EDGE('',*,*,#313,.F.);
#605 = PLANE('',#606);
#606 = AXIS2_PLACEMENT_3D('',#607,#608,#609);
#607 = CARTESIAN_POINT('',(55.,11.5,0.));
#608 = DIRECTION('',(0.,-1.,0.));
#609 = DIRECTION('',(-1.,0.,0.));
#610 = ADVANCED_FACE('',(#611),#622,.F.);
#611 = FACE_BOUND('',#612,.F.);
#612 = EDGE_LOOP('',(#613,#614,#615,#616));
#613 = ORIENTED_EDGE('',*,*,#71,.F.);
#614 = ORIENTED_EDGE('',*,*,#338,.T.);
#615 = ORIENTED_EDGE('',*,*,#364,.T.);
#616 = ORIENTED_EDGE('',*,*,#617,.F.);
#617 = EDGE_CURVE('',#72,#365,#618,.T.);
#618 = LINE('',#619,#620);
#619 = CARTESIAN_POINT('',(51.5,-11.5,0.));
#620 = VECTOR('',#621,1.);
#621 = DIRECTION('',(0.,0.,1.));
#622 = PLANE('',#623);
#623 = AXIS2_PLACEMENT_3D('',#624,#625,#626);
#624 = CARTESIAN_POINT('',(-55.,-11.5,0.));
#625 = DIRECTION('',(0.,1.,0.));
#626 = DIRECTION('',(1.,0.,0.));
#627 = ADVANCED_FACE('',(#628),#639,.T.);
#628 = FACE_BOUND('',#629,.F.);
#629 = EDGE_LOOP('',(#630,#631,#637,#638));
#630 = ORIENTED_EDGE('',*,*,#96,.T.);
#631 = ORIENTED_EDGE('',*,*,#632,.T.);
#632 = EDGE_CURVE('',#89,#382,#633,.T.);
#633 = LINE('',#634,#635);
#634 = CARTESIAN_POINT('',(55.,8.,0.));
#635 = VECTOR('',#636,1.);
#636 = DIRECTION('',(0.,0.,1.));
#637 = ORIENTED_EDGE('',*,*,#389,.F.);
#638 = ORIENTED_EDGE('',*,*,#598,.F.);
#639 = CYLINDRICAL_SURFACE('',#640,3.5);
#640 = AXIS2_PLACEMENT_3D('',#641,#642,#643);
#641 = CARTESIAN_POINT('',(51.5,8.,0.));
#642 = DIRECTION('',(0.,0.,1.));
#643 = DIRECTION('',(0.,1.,0.));
#644 = ADVANCED_FACE('',(#645),#656,.T.);
#645 = FACE_BOUND('',#646,.T.);
#646 = EDGE_LOOP('',(#647,#648,#654,#655));
#647 = ORIENTED_EDGE('',*,*,#79,.T.);
#648 = ORIENTED_EDGE('',*,*,#649,.T.);
#649 = EDGE_CURVE('',#80,#373,#650,.T.);
#650 = LINE('',#651,#652);
#651 = CARTESIAN_POINT('',(55.,-8.,0.));
#652 = VECTOR('',#653,1.);
#653 = DIRECTION('',(0.,0.,1.));
#654 = ORIENTED_EDGE('',*,*,#372,.F.);
#655 = ORIENTED_EDGE('',*,*,#617,.F.);
#656 = CYLINDRICAL_SURFACE('',#657,3.5);
#657 = AXIS2_PLACEMENT_3D('',#658,#659,#660);
#658 = CARTESIAN_POINT('',(51.5,-8.,0.));
#659 = DIRECTION('',(0.,0.,1.));
#660 = DIRECTION('',(0.,-1.,0.));
#661 = ADVANCED_FACE('',(#662),#668,.F.);
#662 = FACE_BOUND('',#663,.F.);
#663 = EDGE_LOOP('',(#664,#665,#666,#667));
#664 = ORIENTED_EDGE('',*,*,#88,.F.);
#665 = ORIENTED_EDGE('',*,*,#649,.T.);
#666 = ORIENTED_EDGE('',*,*,#381,.T.);
#667 = ORIENTED_EDGE('',*,*,#632,.F.);
#668 = PLANE('',#669);
#669 = AXIS2_PLACEMENT_3D('',#670,#671,#672);
#670 = CARTESIAN_POINT('',(55.,-11.5,0.));
#671 = DIRECTION('',(-1.,0.,0.));
#672 = DIRECTION('',(0.,1.,0.));
#673 = ADVANCED_FACE('',(#674),#693,.F.);
#674 = FACE_BOUND('',#675,.F.);
#675 = EDGE_LOOP('',(#676,#685,#691,#692));
#676 = ORIENTED_EDGE('',*,*,#677,.F.);
#677 = EDGE_CURVE('',#678,#678,#680,.T.);
#678 = VERTEX_POINT('',#679);
#679 = CARTESIAN_POINT('',(-2.41,-5.7,5.5));
#680 = CIRCLE('',#681,0.85);
#681 = AXIS2_PLACEMENT_3D('',#682,#683,#684);
#682 = CARTESIAN_POINT('',(-3.26,-5.7,5.5));
#683 = DIRECTION('',(0.,0.,1.));
#684 = DIRECTION('',(1.,0.,0.));
#685 = ORIENTED_EDGE('',*,*,#686,.T.);
#686 = EDGE_CURVE('',#678,#123,#687,.T.);
#687 = LINE('',#688,#689);
#688 = CARTESIAN_POINT('',(-2.41,-5.7,5.5));
#689 = VECTOR('',#690,1.);
#690 = DIRECTION('',(-0.,-0.,-1.));
#691 = ORIENTED_EDGE('',*,*,#122,.T.);
#692 = ORIENTED_EDGE('',*,*,#686,.F.);
#693 = CYLINDRICAL_SURFACE('',#694,0.85);
#694 = AXIS2_PLACEMENT_3D('',#695,#696,#697);
#695 = CARTESIAN_POINT('',(-3.26,-5.7,5.5));
#696 = DIRECTION('',(0.,0.,1.));
#697 = DIRECTION('',(1.,0.,0.));
#698 = ADVANCED_FACE('',(#699),#718,.F.);
#699 = FACE_BOUND('',#700,.F.);
#700 = EDGE_LOOP('',(#701,#710,#716,#717));
#701 = ORIENTED_EDGE('',*,*,#702,.F.);
#702 = EDGE_CURVE('',#703,#703,#705,.T.);
#703 = VERTEX_POINT('',#704);
#704 = CARTESIAN_POINT('',(45.85,-5.7,5.5));
#705 = CIRCLE('',#706,0.85);
#706 = AXIS2_PLACEMENT_3D('',#707,#708,#709);
#707 = CARTESIAN_POINT('',(45.,-5.7,5.5));
#708 = DIRECTION('',(0.,0.,1.));
#709 = DIRECTION('',(1.,0.,0.));
#710 = ORIENTED_EDGE('',*,*,#711,.T.);
#711 = EDGE_CURVE('',#703,#134,#712,.T.);
#712 = LINE('',#713,#714);
#713 = CARTESIAN_POINT('',(45.85,-5.7,5.5));
#714 = VECTOR('',#715,1.);
#715 = DIRECTION('',(-0.,-0.,-1.));
#716 = ORIENTED_EDGE('',*,*,#133,.T.);
#717 = ORIENTED_EDGE('',*,*,#711,.F.);
#718 = CYLINDRICAL_SURFACE('',#719,0.85);
#719 = AXIS2_PLACEMENT_3D('',#720,#721,#722);
#720 = CARTESIAN_POINT('',(45.,-5.7,5.5));
#721 = DIRECTION('',(0.,0.,1.));
#722 = DIRECTION('',(1.,0.,0.));
#723 = ADVANCED_FACE('',(#724),#743,.F.);
#724 = FACE_BOUND('',#725,.F.);
#725 = EDGE_LOOP('',(#726,#735,#741,#742));
#726 = ORIENTED_EDGE('',*,*,#727,.F.);
#727 = EDGE_CURVE('',#728,#728,#730,.T.);
#728 = VERTEX_POINT('',#729);
#729 = CARTESIAN_POINT('',(-2.41,5.7,5.5));
#730 = CIRCLE('',#731,0.85);
#731 = AXIS2_PLACEMENT_3D('',#732,#733,#734);
#732 = CARTESIAN_POINT('',(-3.26,5.7,5.5));
#733 = DIRECTION('',(0.,0.,1.));
#734 = DIRECTION('',(1.,0.,0.));
#735 = ORIENTED_EDGE('',*,*,#736,.T.);
#736 = EDGE_CURVE('',#728,#145,#737,.T.);
#737 = LINE('',#738,#739);
#738 = CARTESIAN_POINT('',(-2.41,5.7,5.5));
#739 = VECTOR('',#740,1.);
#740 = DIRECTION('',(-0.,-0.,-1.));
#741 = ORIENTED_EDGE('',*,*,#144,.T.);
#742 = ORIENTED_EDGE('',*,*,#736,.F.);
#743 = CYLINDRICAL_SURFACE('',#744,0.85);
#744 = AXIS2_PLACEMENT_3D('',#745,#746,#747);
#745 = CARTESIAN_POINT('',(-3.26,5.7,5.5));
#746 = DIRECTION('',(0.,0.,1.));
#747 = DIRECTION('',(1.,0.,0.));
#748 = ADVANCED_FACE('',(#749),#768,.F.);
#749 = FACE_BOUND('',#750,.F.);
#750 = EDGE_LOOP('',(#751,#760,#766,#767));
#751 = ORIENTED_EDGE('',*,*,#752,.F.);
#752 = EDGE_CURVE('',#753,#753,#755,.T.);
#753 = VERTEX_POINT('',#754);
#754 = CARTESIAN_POINT('',(45.85,5.7,5.5));
#755 = CIRCLE('',#756,0.85);
#756 = AXIS2_PLACEMENT_3D('',#757,#758,#759);
#757 = CARTESIAN_POINT('',(45.,5.7,5.5));
#758 = DIRECTION('',(0.,0.,1.));
#759 = DIRECTION('',(1.,0.,0.));
#760 = ORIENTED_EDGE('',*,*,#761,.T.);
#761 = EDGE_CURVE('',#753,#156,#762,.T.);
#762 = LINE('',#763,#764);
#763 = CARTESIAN_POINT('',(45.85,5.7,5.5));
#764 = VECTOR('',#765,1.);
#765 = DIRECTION('',(-0.,-0.,-1.));
#766 = ORIENTED_EDGE('',*,*,#155,.T.);
#767 = ORIENTED_EDGE('',*,*,#761,.F.);
#768 = CYLINDRICAL_SURFACE('',#769,0.85);
#769 = AXIS2_PLACEMENT_3D('',#770,#771,#772);
#770 = CARTESIAN_POINT('',(45.,5.7,5.5));
#771 = DIRECTION('',(0.,0.,1.));
#772 = DIRECTION('',(1.,0.,0.));
#773 = ADVANCED_FACE('',(#774),#790,.F.);
#774 = FACE_BOUND('',#775,.F.);
#775 = EDGE_LOOP('',(#776,#777,#783,#784));
#776 = ORIENTED_EDGE('',*,*,#451,.F.);
#777 = ORIENTED_EDGE('',*,*,#778,.T.);
#778 = EDGE_CURVE('',#452,#167,#779,.T.);
#779 = LINE('',#780,#781);
#780 = CARTESIAN_POINT('',(-45.,3.,2.5));
#781 = VECTOR('',#782,1.);
#782 = DIRECTION('',(-0.,-0.,-1.));
#783 = ORIENTED_EDGE('',*,*,#166,.T.);
#784 = ORIENTED_EDGE('',*,*,#785,.F.);
#785 = EDGE_CURVE('',#454,#169,#786,.T.);
#786 = LINE('',#787,#788);
#787 = CARTESIAN_POINT('',(-45.,-3.,2.5));
#788 = VECTOR('',#789,1.);
#789 = DIRECTION('',(-0.,-0.,-1.));
#790 = PLANE('',#791);
#791 = AXIS2_PLACEMENT_3D('',#792,#793,#794);
#792 = CARTESIAN_POINT('',(-45.,6.5,2.5));
#793 = DIRECTION('',(-1.,0.,0.));
#794 = DIRECTION('',(0.,-1.,0.));
#795 = ADVANCED_FACE('',(#796),#807,.F.);
#796 = FACE_BOUND('',#797,.F.);
#797 = EDGE_LOOP('',(#798,#799,#805,#806));
#798 = ORIENTED_EDGE('',*,*,#461,.T.);
#799 = ORIENTED_EDGE('',*,*,#800,.T.);
#800 = EDGE_CURVE('',#462,#177,#801,.T.);
#801 = LINE('',#802,#803);
#802 = CARTESIAN_POINT('',(-41.5,6.5,2.5));
#803 = VECTOR('',#804,1.);
#804 = DIRECTION('',(-0.,-0.,-1.));
#805 = ORIENTED_EDGE('',*,*,#176,.F.);
#806 = ORIENTED_EDGE('',*,*,#778,.F.);
#807 = CYLINDRICAL_SURFACE('',#808,3.5);
#808 = AXIS2_PLACEMENT_3D('',#809,#810,#811);
#809 = CARTESIAN_POINT('',(-41.5,3.,2.5));
#810 = DIRECTION('',(-0.,-0.,-1.));
#811 = DIRECTION('',(-1.,0.,0.));
#812 = ADVANCED_FACE('',(#813),#824,.F.);
#813 = FACE_BOUND('',#814,.T.);
#814 = EDGE_LOOP('',(#815,#816,#822,#823));
#815 = ORIENTED_EDGE('',*,*,#512,.T.);
#816 = ORIENTED_EDGE('',*,*,#817,.T.);
#817 = EDGE_CURVE('',#505,#220,#818,.T.);
#818 = LINE('',#819,#820);
#819 = CARTESIAN_POINT('',(-41.5,-6.5,2.5));
#820 = VECTOR('',#821,1.);
#821 = DIRECTION('',(-0.,-0.,-1.));
#822 = ORIENTED_EDGE('',*,*,#227,.F.);
#823 = ORIENTED_EDGE('',*,*,#785,.F.);
#824 = CYLINDRICAL_SURFACE('',#825,3.5);
#825 = AXIS2_PLACEMENT_3D('',#826,#827,#828);
#826 = CARTESIAN_POINT('',(-41.5,-3.,2.5));
#827 = DIRECTION('',(-0.,-0.,-1.));
#828 = DIRECTION('',(-1.,0.,0.));
#829 = ADVANCED_FACE('',(#830),#841,.F.);
#830 = FACE_BOUND('',#831,.F.);
#831 = EDGE_LOOP('',(#832,#833,#839,#840));
#832 = ORIENTED_EDGE('',*,*,#470,.F.);
#833 = ORIENTED_EDGE('',*,*,#834,.T.);
#834 = EDGE_CURVE('',#471,#186,#835,.T.);
#835 = LINE('',#836,#837);
#836 = CARTESIAN_POINT('',(-16.76,6.5,2.5));
#837 = VECTOR('',#838,1.);
#838 = DIRECTION('',(-0.,-0.,-1.));
#839 = ORIENTED_EDGE('',*,*,#185,.T.);
#840 = ORIENTED_EDGE('',*,*,#800,.F.);
#841 = PLANE('',#842);
#842 = AXIS2_PLACEMENT_3D('',#843,#844,#845);
#843 = CARTESIAN_POINT('',(-13.26,6.5,2.5));
#844 = DIRECTION('',(0.,1.,0.));
#845 = DIRECTION('',(-1.,0.,0.));
#846 = ADVANCED_FACE('',(#847),#858,.F.);
#847 = FACE_BOUND('',#848,.F.);
#848 = EDGE_LOOP('',(#849,#850,#851,#852));
#849 = ORIENTED_EDGE('',*,*,#504,.F.);
#850 = ORIENTED_EDGE('',*,*,#817,.T.);
#851 = ORIENTED_EDGE('',*,*,#219,.T.);
#852 = ORIENTED_EDGE('',*,*,#853,.F.);
#853 = EDGE_CURVE('',#496,#211,#854,.T.);
#854 = LINE('',#855,#856);
#855 = CARTESIAN_POINT('',(-16.76,-6.5,2.5));
#856 = VECTOR('',#857,1.);
#857 = DIRECTION('',(-0.,-0.,-1.));
#858 = PLANE('',#859);
#859 = AXIS2_PLACEMENT_3D('',#860,#861,#862);
#860 = CARTESIAN_POINT('',(-45.,-6.5,2.5));
#861 = DIRECTION('',(0.,-1.,0.));
#862 = DIRECTION('',(1.,0.,0.));
#863 = ADVANCED_FACE('',(#864),#875,.F.);
#864 = FACE_BOUND('',#865,.T.);
#865 = EDGE_LOOP('',(#866,#867,#868,#869));
#866 = ORIENTED_EDGE('',*,*,#478,.T.);
#867 = ORIENTED_EDGE('',*,*,#834,.T.);
#868 = ORIENTED_EDGE('',*,*,#193,.F.);
#869 = ORIENTED_EDGE('',*,*,#870,.F.);
#870 = EDGE_CURVE('',#479,#194,#871,.T.);
#871 = LINE('',#872,#873);
#872 = CARTESIAN_POINT('',(-13.26,3.,2.5));
#873 = VECTOR('',#874,1.);
#874 = DIRECTION('',(-0.,-0.,-1.));
#875 = CYLINDRICAL_SURFACE('',#876,3.5);
#876 = AXIS2_PLACEMENT_3D('',#877,#878,#879);
#877 = CARTESIAN_POINT('',(-16.76,3.,2.5));
#878 = DIRECTION('',(-0.,-0.,-1.));
#879 = DIRECTION('',(1.,0.,0.));
#880 = ADVANCED_FACE('',(#881),#892,.F.);
#881 = FACE_BOUND('',#882,.T.);
#882 = EDGE_LOOP('',(#883,#884,#890,#891));
#883 = ORIENTED_EDGE('',*,*,#495,.T.);
#884 = ORIENTED_EDGE('',*,*,#885,.T.);
#885 = EDGE_CURVE('',#488,#203,#886,.T.);
#886 = LINE('',#887,#888);
#887 = CARTESIAN_POINT('',(-13.26,-3.,2.5));
#888 = VECTOR('',#889,1.);
#889 = DIRECTION('',(-0.,-0.,-1.));
#890 = ORIENTED_EDGE('',*,*,#210,.F.);
#891 = ORIENTED_EDGE('',*,*,#853,.F.);
#892 = CYLINDRICAL_SURFACE('',#893,3.5);
#893 = AXIS2_PLACEMENT_3D('',#894,#895,#896);
#894 = CARTESIAN_POINT('',(-16.76,-3.,2.5));
#895 = DIRECTION('',(-0.,-0.,-1.));
#896 = DIRECTION('',(0.,-1.,0.));
#897 = ADVANCED_FACE('',(#898),#904,.F.);
#898 = FACE_BOUND('',#899,.F.);
#899 = EDGE_LOOP('',(#900,#901,#902,#903));
#900 = ORIENTED_EDGE('',*,*,#487,.F.);
#901 = ORIENTED_EDGE('',*,*,#885,.T.);
#902 = ORIENTED_EDGE('',*,*,#202,.T.);
#903 = ORIENTED_EDGE('',*,*,#870,.F.);
#904 = PLANE('',#905);
#905 = AXIS2_PLACEMENT_3D('',#906,#907,#908);
#906 = CARTESIAN_POINT('',(-13.26,-6.5,2.5));
#907 = DIRECTION('',(1.,0.,0.));
#908 = DIRECTION('',(0.,1.,0.));
#909 = ADVANCED_FACE('',(#910),#926,.F.);
#910 = FACE_BOUND('',#911,.F.);
#911 = EDGE_LOOP('',(#912,#913,#919,#920));
#912 = ORIENTED_EDGE('',*,*,#521,.F.);
#913 = ORIENTED_EDGE('',*,*,#914,.T.);
#914 = EDGE_CURVE('',#522,#237,#915,.T.);
#915 = LINE('',#916,#917);
#916 = CARTESIAN_POINT('',(6.74,3.,2.5));
#917 = VECTOR('',#918,1.);
#918 = DIRECTION('',(-0.,-0.,-1.));
#919 = ORIENTED_EDGE('',*,*,#236,.T.);
#920 = ORIENTED_EDGE('',*,*,#921,.F.);
#921 = EDGE_CURVE('',#524,#239,#922,.T.);
#922 = LINE('',#923,#924);
#923 = CARTESIAN_POINT('',(6.74,-3.,2.5));
#924 = VECTOR('',#925,1.);
#925 = DIRECTION('',(-0.,-0.,-1.));
#926 = PLANE('',#927);
#927 = AXIS2_PLACEMENT_3D('',#928,#929,#930);
#928 = CARTESIAN_POINT('',(6.74,6.5,2.5));
#929 = DIRECTION('',(-1.,0.,0.));
#930 = DIRECTION('',(0.,-1.,0.));
#931 = ADVANCED_FACE('',(#932),#943,.F.);
#932 = FACE_BOUND('',#933,.F.);
#933 = EDGE_LOOP('',(#934,#935,#941,#942));
#934 = ORIENTED_EDGE('',*,*,#531,.T.);
#935 = ORIENTED_EDGE('',*,*,#936,.T.);
#936 = EDGE_CURVE('',#532,#247,#937,.T.);
#937 = LINE('',#938,#939);
#938 = CARTESIAN_POINT('',(10.24,6.5,2.5));
#939 = VECTOR('',#940,1.);
#940 = DIRECTION('',(-0.,-0.,-1.));
#941 = ORIENTED_EDGE('',*,*,#246,.F.);
#942 = ORIENTED_EDGE('',*,*,#914,.F.);
#943 = CYLINDRICAL_SURFACE('',#944,3.5);
#944 = AXIS2_PLACEMENT_3D('',#945,#946,#947);
#945 = CARTESIAN_POINT('',(10.24,3.,2.5));
#946 = DIRECTION('',(-0.,-0.,-1.));
#947 = DIRECTION('',(-1.,0.,0.));
#948 = ADVANCED_FACE('',(#949),#960,.F.);
#949 = FACE_BOUND('',#950,.T.);
#950 = EDGE_LOOP('',(#951,#952,#958,#959));
#951 = ORIENTED_EDGE('',*,*,#582,.T.);
#952 = ORIENTED_EDGE('',*,*,#953,.T.);
#953 = EDGE_CURVE('',#575,#290,#954,.T.);
#954 = LINE('',#955,#956);
#955 = CARTESIAN_POINT('',(10.24,-6.5,2.5));
#956 = VECTOR('',#957,1.);
#957 = DIRECTION('',(-0.,-0.,-1.));
#958 = ORIENTED_EDGE('',*,*,#297,.F.);
#959 = ORIENTED_EDGE('',*,*,#921,.F.);
#960 = CYLINDRICAL_SURFACE('',#961,3.5);
#961 = AXIS2_PLACEMENT_3D('',#962,#963,#964);
#962 = CARTESIAN_POINT('',(10.24,-3.,2.5));
#963 = DIRECTION('',(-0.,-0.,-1.));
#964 = DIRECTION('',(-1.,0.,0.));
#965 = ADVANCED_FACE('',(#966),#977,.F.);
#966 = FACE_BOUND('',#967,.F.);
#967 = EDGE_LOOP('',(#968,#969,#975,#976));
#968 = ORIENTED_EDGE('',*,*,#540,.F.);
#969 = ORIENTED_EDGE('',*,*,#970,.T.);
#970 = EDGE_CURVE('',#541,#256,#971,.T.);
#971 = LINE('',#972,#973);
#972 = CARTESIAN_POINT('',(31.5,6.5,2.5));
#973 = VECTOR('',#974,1.);
#974 = DIRECTION('',(-0.,-0.,-1.));
#975 = ORIENTED_EDGE('',*,*,#255,.T.);
#976 = ORIENTED_EDGE('',*,*,#936,.F.);
#977 = PLANE('',#978);
#978 = AXIS2_PLACEMENT_3D('',#979,#980,#981);
#979 = CARTESIAN_POINT('',(35.,6.5,2.5));
#980 = DIRECTION('',(0.,1.,0.));
#981 = DIRECTION('',(-1.,0.,0.));
#982 = ADVANCED_FACE('',(#983),#994,.F.);
#983 = FACE_BOUND('',#984,.F.);
#984 = EDGE_LOOP('',(#985,#986,#987,#988));
#985 = ORIENTED_EDGE('',*,*,#574,.F.);
#986 = ORIENTED_EDGE('',*,*,#953,.T.);
#987 = ORIENTED_EDGE('',*,*,#289,.T.);
#988 = ORIENTED_EDGE('',*,*,#989,.F.);
#989 = EDGE_CURVE('',#566,#281,#990,.T.);
#990 = LINE('',#991,#992);
#991 = CARTESIAN_POINT('',(31.5,-6.5,2.5));
#992 = VECTOR('',#993,1.);
#993 = DIRECTION('',(-0.,-0.,-1.));
#994 = PLANE('',#995);
#995 = AXIS2_PLACEMENT_3D('',#996,#997,#998);
#996 = CARTESIAN_POINT('',(6.74,-6.5,2.5));
#997 = DIRECTION('',(0.,-1.,0.));
#998 = DIRECTION('',(1.,0.,0.));
#999 = ADVANCED_FACE('',(#1000),#1011,.F.);
#1000 = FACE_BOUND('',#1001,.T.);
#1001 = EDGE_LOOP('',(#1002,#1003,#1004,#1005));
#1002 = ORIENTED_EDGE('',*,*,#548,.T.);
#1003 = ORIENTED_EDGE('',*,*,#970,.T.);
#1004 = ORIENTED_EDGE('',*,*,#263,.F.);
#1005 = ORIENTED_EDGE('',*,*,#1006,.F.);
#1006 = EDGE_CURVE('',#549,#264,#1007,.T.);
#1007 = LINE('',#1008,#1009);
#1008 = CARTESIAN_POINT('',(35.,3.,2.5));
#1009 = VECTOR('',#1010,1.);
#1010 = DIRECTION('',(-0.,-0.,-1.));
#1011 = CYLINDRICAL_SURFACE('',#1012,3.5);
#1012 = AXIS2_PLACEMENT_3D('',#1013,#1014,#1015);
#1013 = CARTESIAN_POINT('',(31.5,3.,2.5));
#1014 = DIRECTION('',(-0.,-0.,-1.));
#1015 = DIRECTION('',(1.,0.,0.));
#1016 = ADVANCED_FACE('',(#1017),#1028,.F.);
#1017 = FACE_BOUND('',#1018,.T.);
#1018 = EDGE_LOOP('',(#1019,#1020,#1026,#1027));
#1019 = ORIENTED_EDGE('',*,*,#565,.T.);
#1020 = ORIENTED_EDGE('',*,*,#1021,.T.);
#1021 = EDGE_CURVE('',#558,#273,#1022,.T.);
#1022 = LINE('',#1023,#1024);
#1023 = CARTESIAN_POINT('',(35.,-3.,2.5));
#1024 = VECTOR('',#1025,1.);
#1025 = DIRECTION('',(-0.,-0.,-1.));
#1026 = ORIENTED_EDGE('',*,*,#280,.F.);
#1027 = ORIENTED_EDGE('',*,*,#989,.F.);
#1028 = CYLINDRICAL_SURFACE('',#1029,3.5);
#1029 = AXIS2_PLACEMENT_3D('',#1030,#1031,#1032);
#1030 = CARTESIAN_POINT('',(31.5,-3.,2.5));
#1031 = DIRECTION('',(-0.,-0.,-1.));
#1032 = DIRECTION('',(0.,-1.,0.));
#1033 = ADVANCED_FACE('',(#1034),#1040,.F.);
#1034 = FACE_BOUND('',#1035,.F.);
#1035 = EDGE_LOOP('',(#1036,#1037,#1038,#1039));
#1036 = ORIENTED_EDGE('',*,*,#557,.F.);
#1037 = ORIENTED_EDGE('',*,*,#1021,.T.);
#1038 = ORIENTED_EDGE('',*,*,#272,.T.);
#1039 = ORIENTED_EDGE('',*,*,#1006,.F.);
#1040 = PLANE('',#1041);
#1041 = AXIS2_PLACEMENT_3D('',#1042,#1043,#1044);
#1042 = CARTESIAN_POINT('',(35.,-6.5,2.5));
#1043 = DIRECTION('',(1.,0.,0.));
#1044 = DIRECTION('',(0.,1.,0.));
#1045 = ADVANCED_FACE('',(#1046),#1065,.T.);
#1046 = FACE_BOUND('',#1047,.F.);
#1047 = EDGE_LOOP('',(#1048,#1056,#1063,#1064));
#1048 = ORIENTED_EDGE('',*,*,#1049,.T.);
#1049 = EDGE_CURVE('',#408,#1050,#1052,.T.);
#1050 = VERTEX_POINT('',#1051);
#1051 = CARTESIAN_POINT('',(-1.26,-5.7,5.5));
#1052 = LINE('',#1053,#1054);
#1053 = CARTESIAN_POINT('',(-1.26,-5.7,2.5));
#1054 = VECTOR('',#1055,1.);
#1055 = DIRECTION('',(0.,0.,1.));
#1056 = ORIENTED_EDGE('',*,*,#1057,.T.);
#1057 = EDGE_CURVE('',#1050,#1050,#1058,.T.);
#1058 = CIRCLE('',#1059,2.);
#1059 = AXIS2_PLACEMENT_3D('',#1060,#1061,#1062);
#1060 = CARTESIAN_POINT('',(-3.26,-5.7,5.5));
#1061 = DIRECTION('',(0.,0.,1.));
#1062 = DIRECTION('',(1.,0.,0.));
#1063 = ORIENTED_EDGE('',*,*,#1049,.F.);
#1064 = ORIENTED_EDGE('',*,*,#407,.F.);
#1065 = CYLINDRICAL_SURFACE('',#1066,2.);
#1066 = AXIS2_PLACEMENT_3D('',#1067,#1068,#1069);
#1067 = CARTESIAN_POINT('',(-3.26,-5.7,2.5));
#1068 = DIRECTION('',(-0.,-0.,-1.));
#1069 = DIRECTION('',(1.,0.,0.));
#1070 = ADVANCED_FACE('',(#1071),#1090,.T.);
#1071 = FACE_BOUND('',#1072,.F.);
#1072 = EDGE_LOOP('',(#1073,#1081,#1088,#1089));
#1073 = ORIENTED_EDGE('',*,*,#1074,.T.);
#1074 = EDGE_CURVE('',#419,#1075,#1077,.T.);
#1075 = VERTEX_POINT('',#1076);
#1076 = CARTESIAN_POINT('',(47.,-5.7,5.5));
#1077 = LINE('',#1078,#1079);
#1078 = CARTESIAN_POINT('',(47.,-5.7,2.5));
#1079 = VECTOR('',#1080,1.);
#1080 = DIRECTION('',(0.,0.,1.));
#1081 = ORIENTED_EDGE('',*,*,#1082,.T.);
#1082 = EDGE_CURVE('',#1075,#1075,#1083,.T.);
#1083 = CIRCLE('',#1084,2.);
#1084 = AXIS2_PLACEMENT_3D('',#1085,#1086,#1087);
#1085 = CARTESIAN_POINT('',(45.,-5.7,5.5));
#1086 = DIRECTION('',(0.,0.,1.));
#1087 = DIRECTION('',(1.,0.,0.));
#1088 = ORIENTED_EDGE('',*,*,#1074,.F.);
#1089 = ORIENTED_EDGE('',*,*,#418,.F.);
#1090 = CYLINDRICAL_SURFACE('',#1091,2.);
#1091 = AXIS2_PLACEMENT_3D('',#1092,#1093,#1094);
#1092 = CARTESIAN_POINT('',(45.,-5.7,2.5));
#1093 = DIRECTION('',(-0.,-0.,-1.));
#1094 = DIRECTION('',(1.,0.,0.));
#1095 = ADVANCED_FACE('',(#1096),#1115,.T.);
#1096 = FACE_BOUND('',#1097,.F.);
#1097 = EDGE_LOOP('',(#1098,#1106,#1113,#1114));
#1098 = ORIENTED_EDGE('',*,*,#1099,.T.);
#1099 = EDGE_CURVE('',#430,#1100,#1102,.T.);
#1100 = VERTEX_POINT('',#1101);
#1101 = CARTESIAN_POINT('',(-1.26,5.7,5.5));
#1102 = LINE('',#1103,#1104);
#1103 = CARTESIAN_POINT('',(-1.26,5.7,2.5));
#1104 = VECTOR('',#1105,1.);
#1105 = DIRECTION('',(0.,0.,1.));
#1106 = ORIENTED_EDGE('',*,*,#1107,.T.);
#1107 = EDGE_CURVE('',#1100,#1100,#1108,.T.);
#1108 = CIRCLE('',#1109,2.);
#1109 = AXIS2_PLACEMENT_3D('',#1110,#1111,#1112);
#1110 = CARTESIAN_POINT('',(-3.26,5.7,5.5));
#1111 = DIRECTION('',(0.,0.,1.));
#1112 = DIRECTION('',(1.,0.,0.));
#1113 = ORIENTED_EDGE('',*,*,#1099,.F.);
#1114 = ORIENTED_EDGE('',*,*,#429,.F.);
#1115 = CYLINDRICAL_SURFACE('',#1116,2.);
#1116 = AXIS2_PLACEMENT_3D('',#1117,#1118,#1119);
#1117 = CARTESIAN_POINT('',(-3.26,5.7,2.5));
#1118 = DIRECTION('',(-0.,-0.,-1.));
#1119 = DIRECTION('',(1.,0.,0.));
#1120 = ADVANCED_FACE('',(#1121),#1140,.T.);
#1121 = FACE_BOUND('',#1122,.F.);
#1122 = EDGE_LOOP('',(#1123,#1131,#1138,#1139));
#1123 = ORIENTED_EDGE('',*,*,#1124,.T.);
#1124 = EDGE_CURVE('',#441,#1125,#1127,.T.);
#1125 = VERTEX_POINT('',#1126);
#1126 = CARTESIAN_POINT('',(47.,5.7,5.5));
#1127 = LINE('',#1128,#1129);
#1128 = CARTESIAN_POINT('',(47.,5.7,2.5));
#1129 = VECTOR('',#1130,1.);
#1130 = DIRECTION('',(0.,0.,1.));
#1131 = ORIENTED_EDGE('',*,*,#1132,.T.);
#1132 = EDGE_CURVE('',#1125,#1125,#1133,.T.);
#1133 = CIRCLE('',#1134,2.);
#1134 = AXIS2_PLACEMENT_3D('',#1135,#1136,#1137);
#1135 = CARTESIAN_POINT('',(45.,5.7,5.5));
#1136 = DIRECTION('',(0.,0.,1.));
#1137 = DIRECTION('',(1.,0.,0.));
#1138 = ORIENTED_EDGE('',*,*,#1124,.F.);
#1139 = ORIENTED_EDGE('',*,*,#440,.F.);
#1140 = CYLINDRICAL_SURFACE('',#1141,2.);
#1141 = AXIS2_PLACEMENT_3D('',#1142,#1143,#1144);
#1142 = CARTESIAN_POINT('',(45.,5.7,2.5));
#1143 = DIRECTION('',(-0.,-0.,-1.));
#1144 = DIRECTION('',(1.,0.,0.));
#1145 = ADVANCED_FACE('',(#1146,#1149),#1152,.T.);
#1146 = FACE_BOUND('',#1147,.T.);
#1147 = EDGE_LOOP('',(#1148));
#1148 = ORIENTED_EDGE('',*,*,#1057,.T.);
#1149 = FACE_BOUND('',#1150,.T.);
#1150 = EDGE_LOOP('',(#1151));
#1151 = ORIENTED_EDGE('',*,*,#677,.F.);
#1152 = PLANE('',#1153);
#1153 = AXIS2_PLACEMENT_3D('',#1154,#1155,#1156);
#1154 = CARTESIAN_POINT('',(20.87,-4.E-17,5.5));
#1155 = DIRECTION('',(0.,0.,1.));
#1156 = DIRECTION('',(1.,0.,0.));
#1157 = ADVANCED_FACE('',(#1158,#1161),#1164,.T.);
#1158 = FACE_BOUND('',#1159,.T.);
#1159 = EDGE_LOOP('',(#1160));
#1160 = ORIENTED_EDGE('',*,*,#1082,.T.);
#1161 = FACE_BOUND('',#1162,.T.);
#1162 = EDGE_LOOP('',(#1163));
#1163 = ORIENTED_EDGE('',*,*,#702,.F.);
#1164 = PLANE('',#1165);
#1165 = AXIS2_PLACEMENT_3D('',#1166,#1167,#1168);
#1166 = CARTESIAN_POINT('',(20.87,-4.E-17,5.5));
#1167 = DIRECTION('',(0.,0.,1.));
#1168 = DIRECTION('',(1.,0.,0.));
#1169 = ADVANCED_FACE('',(#1170,#1173),#1176,.T.);
#1170 = FACE_BOUND('',#1171,.T.);
#1171 = EDGE_LOOP('',(#1172));
#1172 = ORIENTED_EDGE('',*,*,#1107,.T.);
#1173 = FACE_BOUND('',#1174,.T.);
#1174 = EDGE_LOOP('',(#1175));
#1175 = ORIENTED_EDGE('',*,*,#727,.F.);
#1176 = PLANE('',#1177);
#1177 = AXIS2_PLACEMENT_3D('',#1178,#1179,#1180);
#1178 = CARTESIAN_POINT('',(20.87,-4.E-17,5.5));
#1179 = DIRECTION('',(0.,0.,1.));
#1180 = DIRECTION('',(1.,0.,0.));
#1181 = ADVANCED_FACE('',(#1182,#1185),#1188,.T.);
#1182 = FACE_BOUND('',#1183,.T.);
#1183 = EDGE_LOOP('',(#1184));
#1184 = ORIENTED_EDGE('',*,*,#1132,.T.);
#1185 = FACE_BOUND('',#1186,.T.);
#1186 = EDGE_LOOP('',(#1187));
#1187 = ORIENTED_EDGE('',*,*,#752,.F.);
#1188 = PLANE('',#1189);
#1189 = AXIS2_PLACEMENT_3D('',#1190,#1191,#1192);
#1190 = CARTESIAN_POINT('',(20.87,-4.E-17,5.5));
#1191 = DIRECTION('',(0.,0.,1.));
#1192 = DIRECTION('',(1.,0.,0.));
#1193 = ( GEOMETRIC_REPRESENTATION_CONTEXT(3) 
GLOBAL_UNCERTAINTY_ASSIGNED_CONTEXT((#1197)) 
GLOBAL_UNIT_ASSIGNED_CONTEXT((#1194,#1195,#1196)) REPRESENTATION_CONTEXT
('Context #1','3D Context with UNIT and UNCERTAINTY') );
#1194 = ( LENGTH_UNIT() NAMED_UNIT(*) SI_UNIT(.MILLI.,.METRE.) );
#1195 = ( NAMED_UNIT(*) PLANE_ANGLE_UNIT() SI_UNIT($,.RADIAN.) );
#1196 = ( NAMED_UNIT(*) SI_UNIT($,.STERADIAN.) SOLID_ANGLE_UNIT() );
#1197 = UNCERTAINTY_MEASURE_WITH_UNIT(LENGTH_MEASURE(2.E-05),#1194,
  'distance_accuracy_value','confusion accuracy');
#1198 = PRODUCT_RELATED_PRODUCT_CATEGORY('part',$,(#7));
#1199 = MECHANICAL_DESIGN_GEOMETRIC_PRESENTATION_REPRESENTATION('',(
    #1200),#1193);
#1200 = STYLED_ITEM('color',(#1201),#15);
#1201 = PRESENTATION_STYLE_ASSIGNMENT((#1202,#1208));
#1202 = SURFACE_STYLE_USAGE(.BOTH.,#1203);
#1203 = SURFACE_SIDE_STYLE('',(#1204));
#1204 = SURFACE_STYLE_FILL_AREA(#1205);
#1205 = FILL_AREA_STYLE('',(#1206));
#1206 = FILL_AREA_STYLE_COLOUR('',#1207);
#1207 = COLOUR_RGB('',0.678431390124,0.709803936702,0.741176476869);
#1208 = CURVE_STYLE('',#1209,POSITIVE_LENGTH_MEASURE(0.1),#1210);
#1209 = DRAUGHTING_PRE_DEFINED_CURVE_FONT('continuous');
#1210 = COLOUR_RGB('',9.803921802644E-02,9.803921802644E-02,
  9.803921802644E-02);
ENDSEC;
END-ISO-10303-21;
